<mxfile host="Electron" modified="2024-04-18T05:43:59.066Z" agent="Mozilla/5.0 (X11; Linux x86_64) AppleWebKit/537.36 (KHTML, like Gecko) draw.io/24.1.0 Chrome/120.0.6099.109 Electron/28.1.0 Safari/537.36" etag="ARP7BtJT0SbFh35Flp0D" compressed="false" version="24.1.0" type="device">
  <diagram name="assets" id="1OMuLuB4Y4E8IjhXS_Ve">
    <mxGraphModel dx="1434" dy="-1707" grid="1" gridSize="10" guides="1" tooltips="1" connect="1" arrows="1" fold="1" page="1" pageScale="1" pageWidth="1100" pageHeight="850" math="1" shadow="0">
      <root>
        <mxCell id="3tSkZ9ipMQrx1SXFK2ha-0" />
        <mxCell id="3tSkZ9ipMQrx1SXFK2ha-1" parent="3tSkZ9ipMQrx1SXFK2ha-0" />
        <mxCell id="Tg8t-XBZL65XWohWgEV2-0" value="" style="group" parent="3tSkZ9ipMQrx1SXFK2ha-1" vertex="1" connectable="0">
          <mxGeometry x="200" y="2965" width="720" height="266" as="geometry" />
        </mxCell>
        <mxCell id="Tg8t-XBZL65XWohWgEV2-1" value="&lt;span style=&quot;font-size: 14px&quot;&gt;&lt;font color=&quot;#000000&quot;&gt;Service&lt;/font&gt;&lt;/span&gt;" style="rounded=1;whiteSpace=wrap;html=1;fillColor=#6a00ff;strokeColor=#3700CC;fontColor=#ffffff;opacity=30;" parent="Tg8t-XBZL65XWohWgEV2-0" vertex="1">
          <mxGeometry x="599.8800000000001" y="101" width="65.75" height="30" as="geometry" />
        </mxCell>
        <mxCell id="Tg8t-XBZL65XWohWgEV2-2" value="&lt;div style=&quot;text-align: center&quot;&gt;&lt;span&gt;&lt;font face=&quot;helvetica&quot;&gt;*&lt;/font&gt;&lt;/span&gt;&lt;/div&gt;" style="text;whiteSpace=wrap;html=1;fontSize=14;fontColor=#000000;" parent="Tg8t-XBZL65XWohWgEV2-0" vertex="1">
          <mxGeometry x="634.75" y="83" width="9.5" height="10" as="geometry" />
        </mxCell>
        <mxCell id="Tg8t-XBZL65XWohWgEV2-3" value="" style="rhombus;whiteSpace=wrap;html=1;fillColor=#000000;" parent="Tg8t-XBZL65XWohWgEV2-0" vertex="1">
          <mxGeometry x="494.25" y="50" width="11" height="10" as="geometry" />
        </mxCell>
        <mxCell id="Tg8t-XBZL65XWohWgEV2-4" style="edgeStyle=orthogonalEdgeStyle;rounded=0;orthogonalLoop=1;jettySize=auto;html=1;entryX=0.5;entryY=0;entryDx=0;entryDy=0;fontSize=14;fontColor=#000000;startArrow=none;startFill=0;endArrow=none;endFill=0;exitX=0.5;exitY=1;exitDx=0;exitDy=0;" parent="Tg8t-XBZL65XWohWgEV2-0" source="Tg8t-XBZL65XWohWgEV2-3" target="Tg8t-XBZL65XWohWgEV2-10" edge="1">
          <mxGeometry relative="1" as="geometry">
            <mxPoint x="499.25" y="60" as="sourcePoint" />
          </mxGeometry>
        </mxCell>
        <mxCell id="Tg8t-XBZL65XWohWgEV2-5" value="&lt;font style=&quot;font-size: 14px&quot;&gt;Digital Twin&lt;/font&gt;" style="rounded=1;whiteSpace=wrap;html=1;fillColor=#d5e8d4;strokeColor=#82b366;" parent="Tg8t-XBZL65XWohWgEV2-0" vertex="1">
          <mxGeometry x="325.25" y="20" width="344.75" height="30" as="geometry" />
        </mxCell>
        <mxCell id="Tg8t-XBZL65XWohWgEV2-6" style="edgeStyle=orthogonalEdgeStyle;rounded=0;orthogonalLoop=1;jettySize=auto;html=1;exitX=0.5;exitY=0;exitDx=0;exitDy=0;entryX=0;entryY=0.5;entryDx=0;entryDy=0;fontSize=14;fontColor=#000000;endArrow=none;endFill=0;" parent="Tg8t-XBZL65XWohWgEV2-0" source="Tg8t-XBZL65XWohWgEV2-7" target="Tg8t-XBZL65XWohWgEV2-5" edge="1">
          <mxGeometry relative="1" as="geometry">
            <Array as="points">
              <mxPoint x="265.25" y="35" />
            </Array>
          </mxGeometry>
        </mxCell>
        <mxCell id="Tg8t-XBZL65XWohWgEV2-7" value="&lt;font style=&quot;font-size: 14px&quot;&gt;Data&lt;/font&gt;" style="rounded=1;whiteSpace=wrap;html=1;fillColor=#76608a;strokeColor=#432D57;fontColor=#000000;opacity=30;" parent="Tg8t-XBZL65XWohWgEV2-0" vertex="1">
          <mxGeometry x="235.25" y="101" width="60" height="30" as="geometry" />
        </mxCell>
        <mxCell id="Tg8t-XBZL65XWohWgEV2-8" value="&lt;span style=&quot;font-size: 14px&quot;&gt;&lt;font color=&quot;#000000&quot;&gt;Model&lt;/font&gt;&lt;/span&gt;" style="rounded=1;whiteSpace=wrap;html=1;fillColor=#fff2cc;strokeColor=#d6b656;opacity=40;" parent="Tg8t-XBZL65XWohWgEV2-0" vertex="1">
          <mxGeometry x="308.25" y="101" width="60" height="30" as="geometry" />
        </mxCell>
        <mxCell id="Tg8t-XBZL65XWohWgEV2-9" style="edgeStyle=orthogonalEdgeStyle;rounded=0;orthogonalLoop=1;jettySize=auto;html=1;exitX=0;exitY=0.5;exitDx=0;exitDy=0;entryX=1;entryY=0.5;entryDx=0;entryDy=0;fontSize=14;fontColor=#000000;endArrow=open;endFill=0;dashed=1;" parent="Tg8t-XBZL65XWohWgEV2-0" source="Tg8t-XBZL65XWohWgEV2-10" target="Tg8t-XBZL65XWohWgEV2-8" edge="1">
          <mxGeometry relative="1" as="geometry" />
        </mxCell>
        <mxCell id="Tg8t-XBZL65XWohWgEV2-10" value="&lt;span style=&quot;font-size: 14px&quot;&gt;&lt;font color=&quot;#000000&quot;&gt;Tool&lt;/font&gt;&lt;/span&gt;" style="rounded=1;whiteSpace=wrap;html=1;fillColor=#E1D5E7;strokeColor=#3700CC;fontColor=#ffffff;opacity=30;" parent="Tg8t-XBZL65XWohWgEV2-0" vertex="1">
          <mxGeometry x="470.25" y="101" width="60" height="30" as="geometry" />
        </mxCell>
        <mxCell id="Tg8t-XBZL65XWohWgEV2-11" style="edgeStyle=orthogonalEdgeStyle;rounded=0;orthogonalLoop=1;jettySize=auto;html=1;exitX=0;exitY=0.5;exitDx=0;exitDy=0;entryX=1;entryY=0.5;entryDx=0;entryDy=0;endArrow=open;endFill=0;dashed=1;" parent="Tg8t-XBZL65XWohWgEV2-0" source="Tg8t-XBZL65XWohWgEV2-1" target="Tg8t-XBZL65XWohWgEV2-10" edge="1">
          <mxGeometry relative="1" as="geometry">
            <mxPoint x="559.25" y="116" as="targetPoint" />
          </mxGeometry>
        </mxCell>
        <mxCell id="Tg8t-XBZL65XWohWgEV2-12" style="edgeStyle=orthogonalEdgeStyle;rounded=0;orthogonalLoop=1;jettySize=auto;html=1;exitX=0.5;exitY=0;exitDx=0;exitDy=0;entryX=0.5;entryY=1;entryDx=0;entryDy=0;fontSize=14;fontColor=#000000;endArrow=none;endFill=0;" parent="Tg8t-XBZL65XWohWgEV2-0" source="Tg8t-XBZL65XWohWgEV2-8" target="Tg8t-XBZL65XWohWgEV2-15" edge="1">
          <mxGeometry relative="1" as="geometry">
            <mxPoint x="338.25" y="100" as="sourcePoint" />
            <Array as="points">
              <mxPoint x="338.25" y="70" />
              <mxPoint x="338.25" y="70" />
            </Array>
          </mxGeometry>
        </mxCell>
        <mxCell id="Tg8t-XBZL65XWohWgEV2-13" value="&lt;font style=&quot;font-size: 14px&quot; color=&quot;#000000&quot;&gt;Physical Twin (PT)&lt;/font&gt;" style="rounded=1;whiteSpace=wrap;html=1;fillColor=#f8cecc;strokeColor=#b85450;" parent="Tg8t-XBZL65XWohWgEV2-0" vertex="1">
          <mxGeometry x="290.25" y="171" width="132" height="30" as="geometry" />
        </mxCell>
        <mxCell id="Tg8t-XBZL65XWohWgEV2-14" style="edgeStyle=orthogonalEdgeStyle;rounded=0;orthogonalLoop=1;jettySize=auto;html=1;exitX=0.75;exitY=1;exitDx=0;exitDy=0;entryX=0.5;entryY=0;entryDx=0;entryDy=0;fontSize=14;fontColor=#000000;endArrow=none;endFill=0;startArrow=block;startFill=0;" parent="Tg8t-XBZL65XWohWgEV2-0" source="Tg8t-XBZL65XWohWgEV2-7" target="Tg8t-XBZL65XWohWgEV2-13" edge="1">
          <mxGeometry relative="1" as="geometry">
            <mxPoint x="356.25" y="131" as="sourcePoint" />
          </mxGeometry>
        </mxCell>
        <mxCell id="Tg8t-XBZL65XWohWgEV2-15" value="" style="rhombus;whiteSpace=wrap;html=1;fillColor=#000000;" parent="Tg8t-XBZL65XWohWgEV2-0" vertex="1">
          <mxGeometry x="332.75" y="50" width="11" height="10" as="geometry" />
        </mxCell>
        <mxCell id="Tg8t-XBZL65XWohWgEV2-16" value="&lt;font style=&quot;font-size: 14px&quot; color=&quot;#000000&quot;&gt;Mock PT&lt;/font&gt;" style="rounded=1;whiteSpace=wrap;html=1;fillColor=#f8cecc;strokeColor=#b85450;" parent="Tg8t-XBZL65XWohWgEV2-0" vertex="1">
          <mxGeometry x="276.25" y="236" width="70" height="30" as="geometry" />
        </mxCell>
        <mxCell id="Tg8t-XBZL65XWohWgEV2-17" style="edgeStyle=orthogonalEdgeStyle;rounded=0;orthogonalLoop=1;jettySize=auto;html=1;exitX=0.5;exitY=1;exitDx=0;exitDy=0;entryX=0.5;entryY=0;entryDx=0;entryDy=0;fontSize=14;fontColor=#000000;startArrow=block;startFill=0;endArrow=none;endFill=0;dashed=1;" parent="Tg8t-XBZL65XWohWgEV2-0" source="Tg8t-XBZL65XWohWgEV2-13" target="Tg8t-XBZL65XWohWgEV2-16" edge="1">
          <mxGeometry relative="1" as="geometry" />
        </mxCell>
        <mxCell id="Tg8t-XBZL65XWohWgEV2-18" value="&lt;span style=&quot;color: rgb(0 , 0 , 0) ; font-family: &amp;#34;helvetica&amp;#34; ; font-size: 14px ; font-style: normal ; font-weight: 400 ; letter-spacing: normal ; text-align: center ; text-indent: 0px ; text-transform: none ; word-spacing: 0px ; background-color: rgb(248 , 249 , 250) ; display: inline ; float: none&quot;&gt;&amp;lt;&amp;lt;evaluate&amp;gt;&amp;gt;&lt;/span&gt;" style="text;whiteSpace=wrap;html=1;fontSize=14;fontColor=#000000;" parent="Tg8t-XBZL65XWohWgEV2-0" vertex="1">
          <mxGeometry x="380" y="87" width="70" height="30" as="geometry" />
        </mxCell>
        <mxCell id="Tg8t-XBZL65XWohWgEV2-19" value="&lt;div style=&quot;text-align: center&quot;&gt;&lt;span&gt;&lt;font face=&quot;helvetica&quot;&gt;*&lt;/font&gt;&lt;/span&gt;&lt;/div&gt;" style="text;whiteSpace=wrap;html=1;fontSize=14;fontColor=#000000;" parent="Tg8t-XBZL65XWohWgEV2-0" vertex="1">
          <mxGeometry x="337.75" y="83" width="9.5" height="10" as="geometry" />
        </mxCell>
        <mxCell id="Tg8t-XBZL65XWohWgEV2-20" value="&lt;font style=&quot;font-size: 14px&quot; color=&quot;#000000&quot;&gt;Actual PT&lt;/font&gt;" style="rounded=1;whiteSpace=wrap;html=1;fillColor=#f8cecc;strokeColor=#b85450;" parent="Tg8t-XBZL65XWohWgEV2-0" vertex="1">
          <mxGeometry x="376.75" y="236" width="70" height="30" as="geometry" />
        </mxCell>
        <mxCell id="Tg8t-XBZL65XWohWgEV2-21" style="edgeStyle=orthogonalEdgeStyle;rounded=0;orthogonalLoop=1;jettySize=auto;html=1;exitX=0.5;exitY=1;exitDx=0;exitDy=0;fontSize=14;fontColor=#000000;startArrow=block;startFill=0;endArrow=none;endFill=0;dashed=1;" parent="Tg8t-XBZL65XWohWgEV2-0" source="Tg8t-XBZL65XWohWgEV2-13" target="Tg8t-XBZL65XWohWgEV2-20" edge="1">
          <mxGeometry relative="1" as="geometry" />
        </mxCell>
        <mxCell id="Tg8t-XBZL65XWohWgEV2-22" value="&lt;font style=&quot;font-size: 14px&quot; color=&quot;#000000&quot;&gt;Env&lt;/font&gt;" style="rounded=1;whiteSpace=wrap;html=1;fillColor=#e6d0de;strokeColor=#996185;opacity=30;gradientColor=#d5739d;" parent="Tg8t-XBZL65XWohWgEV2-0" vertex="1">
          <mxGeometry x="143.8800000000001" y="171" width="60.75" height="30" as="geometry" />
        </mxCell>
        <mxCell id="Tg8t-XBZL65XWohWgEV2-23" style="edgeStyle=orthogonalEdgeStyle;rounded=0;orthogonalLoop=1;jettySize=auto;html=1;exitX=0.25;exitY=1;exitDx=0;exitDy=0;entryX=0.5;entryY=0;entryDx=0;entryDy=0;startArrow=block;startFill=0;endArrow=none;endFill=0;" parent="Tg8t-XBZL65XWohWgEV2-0" source="Tg8t-XBZL65XWohWgEV2-7" target="Tg8t-XBZL65XWohWgEV2-22" edge="1">
          <mxGeometry relative="1" as="geometry" />
        </mxCell>
        <mxCell id="Tg8t-XBZL65XWohWgEV2-24" value="&lt;font style=&quot;font-size: 14px&quot; color=&quot;#000000&quot;&gt;Mock Env&lt;/font&gt;" style="rounded=1;whiteSpace=wrap;html=1;fillColor=#e6d0de;strokeColor=#996185;opacity=30;gradientColor=#d5739d;" parent="Tg8t-XBZL65XWohWgEV2-0" vertex="1">
          <mxGeometry x="89" y="236" width="70" height="30" as="geometry" />
        </mxCell>
        <mxCell id="Tg8t-XBZL65XWohWgEV2-25" style="edgeStyle=orthogonalEdgeStyle;rounded=0;orthogonalLoop=1;jettySize=auto;html=1;exitX=0.5;exitY=1;exitDx=0;exitDy=0;entryX=0.5;entryY=0;entryDx=0;entryDy=0;fontSize=14;fontColor=#000000;startArrow=block;startFill=0;endArrow=none;endFill=0;fillColor=#e6d0de;strokeColor=#996185;gradientColor=#d5739d;dashed=1;" parent="Tg8t-XBZL65XWohWgEV2-0" source="Tg8t-XBZL65XWohWgEV2-22" target="Tg8t-XBZL65XWohWgEV2-24" edge="1">
          <mxGeometry relative="1" as="geometry" />
        </mxCell>
        <mxCell id="Tg8t-XBZL65XWohWgEV2-26" value="&lt;font style=&quot;font-size: 14px&quot; color=&quot;#000000&quot;&gt;Actual Env&lt;/font&gt;" style="rounded=1;whiteSpace=wrap;html=1;fillColor=#e6d0de;strokeColor=#996185;opacity=30;gradientColor=#d5739d;" parent="Tg8t-XBZL65XWohWgEV2-0" vertex="1">
          <mxGeometry x="174.25" y="236" width="85.25" height="30" as="geometry" />
        </mxCell>
        <mxCell id="Tg8t-XBZL65XWohWgEV2-27" style="edgeStyle=orthogonalEdgeStyle;rounded=0;orthogonalLoop=1;jettySize=auto;html=1;exitX=0.5;exitY=1;exitDx=0;exitDy=0;fontSize=14;fontColor=#000000;startArrow=block;startFill=0;endArrow=none;endFill=0;fillColor=#e6d0de;strokeColor=#996185;gradientColor=#d5739d;dashed=1;" parent="Tg8t-XBZL65XWohWgEV2-0" source="Tg8t-XBZL65XWohWgEV2-22" target="Tg8t-XBZL65XWohWgEV2-26" edge="1">
          <mxGeometry relative="1" as="geometry" />
        </mxCell>
        <mxCell id="Tg8t-XBZL65XWohWgEV2-28" value="" style="rhombus;whiteSpace=wrap;html=1;" parent="Tg8t-XBZL65XWohWgEV2-0" vertex="1">
          <mxGeometry x="627.25" y="51" width="11" height="10" as="geometry" />
        </mxCell>
        <mxCell id="Tg8t-XBZL65XWohWgEV2-29" style="edgeStyle=orthogonalEdgeStyle;rounded=0;orthogonalLoop=1;jettySize=auto;html=1;entryX=0.5;entryY=0;entryDx=0;entryDy=0;fontSize=14;fontColor=#000000;startArrow=none;startFill=0;endArrow=none;endFill=0;exitX=0.5;exitY=1;exitDx=0;exitDy=0;" parent="Tg8t-XBZL65XWohWgEV2-0" source="Tg8t-XBZL65XWohWgEV2-28" target="Tg8t-XBZL65XWohWgEV2-1" edge="1">
          <mxGeometry relative="1" as="geometry">
            <mxPoint x="340.25" y="-7981" as="sourcePoint" />
          </mxGeometry>
        </mxCell>
        <mxCell id="Tg8t-XBZL65XWohWgEV2-30" style="edgeStyle=orthogonalEdgeStyle;rounded=0;orthogonalLoop=1;jettySize=auto;html=1;exitX=0.5;exitY=0;exitDx=0;exitDy=0;endArrow=block;endFill=0;" parent="Tg8t-XBZL65XWohWgEV2-0" source="Tg8t-XBZL65XWohWgEV2-31" target="Tg8t-XBZL65XWohWgEV2-1" edge="1">
          <mxGeometry relative="1" as="geometry">
            <Array as="points">
              <mxPoint x="577" y="151" />
              <mxPoint x="632" y="151" />
            </Array>
          </mxGeometry>
        </mxCell>
        <mxCell id="Tg8t-XBZL65XWohWgEV2-31" value="&lt;font color=&quot;#000000&quot;&gt;&lt;span style=&quot;font-size: 14px&quot;&gt;Internal&lt;/span&gt;&lt;/font&gt;" style="rounded=1;whiteSpace=wrap;html=1;fillColor=#6A00FF;strokeColor=#432D57;fontColor=#ffffff;opacity=30;" parent="Tg8t-XBZL65XWohWgEV2-0" vertex="1">
          <mxGeometry x="542" y="169" width="70" height="30" as="geometry" />
        </mxCell>
        <mxCell id="Tg8t-XBZL65XWohWgEV2-32" style="edgeStyle=orthogonalEdgeStyle;rounded=0;orthogonalLoop=1;jettySize=auto;html=1;exitX=0.5;exitY=0;exitDx=0;exitDy=0;entryX=0.5;entryY=1;entryDx=0;entryDy=0;endArrow=block;endFill=0;" parent="Tg8t-XBZL65XWohWgEV2-0" source="Tg8t-XBZL65XWohWgEV2-33" edge="1">
          <mxGeometry relative="1" as="geometry">
            <mxPoint x="631.7550000000001" y="131" as="targetPoint" />
            <Array as="points">
              <mxPoint x="697" y="151" />
              <mxPoint x="632" y="151" />
            </Array>
          </mxGeometry>
        </mxCell>
        <mxCell id="Tg8t-XBZL65XWohWgEV2-33" value="&lt;font color=&quot;#000000&quot;&gt;&lt;span style=&quot;font-size: 14px&quot;&gt;Platform&lt;/span&gt;&lt;/font&gt;" style="rounded=1;whiteSpace=wrap;html=1;fillColor=#6A00FF;strokeColor=#432D57;fontColor=#ffffff;opacity=30;" parent="Tg8t-XBZL65XWohWgEV2-0" vertex="1">
          <mxGeometry x="661.25" y="169" width="70" height="30" as="geometry" />
        </mxCell>
        <mxCell id="Tg8t-XBZL65XWohWgEV2-34" value="&lt;span style=&quot;color: rgb(0 , 0 , 0) ; font-family: &amp;#34;helvetica&amp;#34; ; font-size: 14px ; font-style: normal ; font-weight: 400 ; letter-spacing: normal ; text-align: center ; text-indent: 0px ; text-transform: none ; word-spacing: 0px ; background-color: rgb(248 , 249 , 250) ; display: inline ; float: none&quot;&gt;&amp;lt;&amp;lt;use&amp;gt;&amp;gt;&lt;/span&gt;" style="text;whiteSpace=wrap;html=1;fontSize=14;fontColor=#000000;" parent="Tg8t-XBZL65XWohWgEV2-0" vertex="1">
          <mxGeometry x="540" y="89" width="70" height="30" as="geometry" />
        </mxCell>
        <mxCell id="5A9Rjdn__eKlZkGyGeqz-18" value="" style="group" parent="3tSkZ9ipMQrx1SXFK2ha-1" vertex="1" connectable="0">
          <mxGeometry x="250.25" y="2975" width="118.75" height="114" as="geometry" />
        </mxCell>
        <mxCell id="5A9Rjdn__eKlZkGyGeqz-8" style="edgeStyle=orthogonalEdgeStyle;rounded=0;orthogonalLoop=1;jettySize=auto;html=1;exitX=0.5;exitY=1;exitDx=0;exitDy=0;endArrow=none;endFill=0;" parent="5A9Rjdn__eKlZkGyGeqz-18" edge="1">
          <mxGeometry relative="1" as="geometry">
            <mxPoint x="19.75" y="48" as="targetPoint" />
            <mxPoint x="1" y="48" as="sourcePoint" />
          </mxGeometry>
        </mxCell>
        <mxCell id="5A9Rjdn__eKlZkGyGeqz-6" style="edgeStyle=orthogonalEdgeStyle;rounded=0;orthogonalLoop=1;jettySize=auto;html=1;exitX=0.5;exitY=1;exitDx=0;exitDy=0;endArrow=none;endFill=0;" parent="5A9Rjdn__eKlZkGyGeqz-18" source="5A9Rjdn__eKlZkGyGeqz-7" edge="1">
          <mxGeometry relative="1" as="geometry">
            <mxPoint x="19.75" y="32" as="targetPoint" />
          </mxGeometry>
        </mxCell>
        <mxCell id="5A9Rjdn__eKlZkGyGeqz-7" value="" style="rhombus;whiteSpace=wrap;html=1;fillColor=none;rotation=-90;" parent="5A9Rjdn__eKlZkGyGeqz-18" vertex="1">
          <mxGeometry x="1" y="27" width="11" height="10" as="geometry" />
        </mxCell>
        <mxCell id="5A9Rjdn__eKlZkGyGeqz-3" style="edgeStyle=orthogonalEdgeStyle;rounded=0;orthogonalLoop=1;jettySize=auto;html=1;exitX=0.5;exitY=1;exitDx=0;exitDy=0;endArrow=none;endFill=0;" parent="5A9Rjdn__eKlZkGyGeqz-18" source="5A9Rjdn__eKlZkGyGeqz-0" edge="1">
          <mxGeometry relative="1" as="geometry">
            <mxPoint x="19.75" y="15" as="targetPoint" />
          </mxGeometry>
        </mxCell>
        <mxCell id="5A9Rjdn__eKlZkGyGeqz-0" value="" style="rhombus;whiteSpace=wrap;html=1;fillColor=#000000;rotation=-90;" parent="5A9Rjdn__eKlZkGyGeqz-18" vertex="1">
          <mxGeometry x="1" y="10" width="11" height="10" as="geometry" />
        </mxCell>
        <mxCell id="5A9Rjdn__eKlZkGyGeqz-9" style="edgeStyle=orthogonalEdgeStyle;rounded=0;orthogonalLoop=1;jettySize=auto;html=1;exitX=0.5;exitY=1;exitDx=0;exitDy=0;endArrow=block;endFill=0;" parent="5A9Rjdn__eKlZkGyGeqz-18" edge="1">
          <mxGeometry relative="1" as="geometry">
            <mxPoint x="19.75" y="67" as="targetPoint" />
            <mxPoint x="1" y="67" as="sourcePoint" />
          </mxGeometry>
        </mxCell>
        <mxCell id="5A9Rjdn__eKlZkGyGeqz-10" style="edgeStyle=orthogonalEdgeStyle;rounded=0;orthogonalLoop=1;jettySize=auto;html=1;exitX=0.5;exitY=1;exitDx=0;exitDy=0;endArrow=open;endFill=0;dashed=1;" parent="5A9Rjdn__eKlZkGyGeqz-18" edge="1">
          <mxGeometry relative="1" as="geometry">
            <mxPoint x="18.75" y="99" as="targetPoint" />
            <mxPoint y="99" as="sourcePoint" />
          </mxGeometry>
        </mxCell>
        <mxCell id="5A9Rjdn__eKlZkGyGeqz-11" style="edgeStyle=orthogonalEdgeStyle;rounded=0;orthogonalLoop=1;jettySize=auto;html=1;exitX=0.5;exitY=1;exitDx=0;exitDy=0;endArrow=block;endFill=0;dashed=1;" parent="5A9Rjdn__eKlZkGyGeqz-18" edge="1">
          <mxGeometry relative="1" as="geometry">
            <mxPoint x="19.75" y="84" as="targetPoint" />
            <mxPoint x="1" y="84" as="sourcePoint" />
          </mxGeometry>
        </mxCell>
        <mxCell id="5A9Rjdn__eKlZkGyGeqz-12" value="&lt;span style=&quot;color: rgb(0 , 0 , 0) ; font-family: &amp;#34;helvetica&amp;#34; ; font-size: 14px ; font-style: normal ; font-weight: 400 ; letter-spacing: normal ; text-align: center ; text-indent: 0px ; text-transform: none ; word-spacing: 0px ; background-color: rgb(248 , 249 , 250) ; display: inline ; float: none&quot;&gt;composition&lt;/span&gt;" style="text;whiteSpace=wrap;html=1;" parent="5A9Rjdn__eKlZkGyGeqz-18" vertex="1">
          <mxGeometry x="26.75" width="90" height="30" as="geometry" />
        </mxCell>
        <mxCell id="5A9Rjdn__eKlZkGyGeqz-13" value="&lt;span style=&quot;color: rgb(0 , 0 , 0) ; font-family: &amp;#34;helvetica&amp;#34; ; font-size: 14px ; font-style: normal ; font-weight: 400 ; letter-spacing: normal ; text-align: center ; text-indent: 0px ; text-transform: none ; word-spacing: 0px ; background-color: rgb(248 , 249 , 250) ; display: inline ; float: none&quot;&gt;aggregation&lt;/span&gt;" style="text;whiteSpace=wrap;html=1;" parent="5A9Rjdn__eKlZkGyGeqz-18" vertex="1">
          <mxGeometry x="27.75" y="16" width="90" height="30" as="geometry" />
        </mxCell>
        <mxCell id="5A9Rjdn__eKlZkGyGeqz-14" value="&lt;span style=&quot;color: rgb(0 , 0 , 0) ; font-family: &amp;#34;helvetica&amp;#34; ; font-size: 14px ; font-style: normal ; font-weight: 400 ; letter-spacing: normal ; text-align: center ; text-indent: 0px ; text-transform: none ; word-spacing: 0px ; background-color: rgb(248 , 249 , 250) ; display: inline ; float: none&quot;&gt;association&lt;/span&gt;" style="text;whiteSpace=wrap;html=1;" parent="5A9Rjdn__eKlZkGyGeqz-18" vertex="1">
          <mxGeometry x="27.75" y="33" width="90" height="30" as="geometry" />
        </mxCell>
        <mxCell id="5A9Rjdn__eKlZkGyGeqz-15" value="&lt;span style=&quot;color: rgb(0 , 0 , 0) ; font-family: &amp;#34;helvetica&amp;#34; ; font-size: 14px ; font-style: normal ; font-weight: 400 ; letter-spacing: normal ; text-align: center ; text-indent: 0px ; text-transform: none ; word-spacing: 0px ; background-color: rgb(248 , 249 , 250) ; display: inline ; float: none&quot;&gt;generalisation&lt;/span&gt;" style="text;whiteSpace=wrap;html=1;" parent="5A9Rjdn__eKlZkGyGeqz-18" vertex="1">
          <mxGeometry x="27.75" y="50" width="90" height="30" as="geometry" />
        </mxCell>
        <mxCell id="5A9Rjdn__eKlZkGyGeqz-16" value="&lt;span style=&quot;color: rgb(0 , 0 , 0) ; font-family: &amp;#34;helvetica&amp;#34; ; font-size: 14px ; font-style: normal ; font-weight: 400 ; letter-spacing: normal ; text-align: center ; text-indent: 0px ; text-transform: none ; word-spacing: 0px ; background-color: rgb(248 , 249 , 250) ; display: inline ; float: none&quot;&gt;realisation&lt;/span&gt;" style="text;whiteSpace=wrap;html=1;" parent="5A9Rjdn__eKlZkGyGeqz-18" vertex="1">
          <mxGeometry x="28.75" y="68" width="90" height="30" as="geometry" />
        </mxCell>
        <mxCell id="5A9Rjdn__eKlZkGyGeqz-17" value="&lt;span style=&quot;color: rgb(0 , 0 , 0) ; font-family: &amp;#34;helvetica&amp;#34; ; font-size: 14px ; font-style: normal ; font-weight: 400 ; letter-spacing: normal ; text-align: center ; text-indent: 0px ; text-transform: none ; word-spacing: 0px ; background-color: rgb(248 , 249 , 250) ; display: inline ; float: none&quot;&gt;use&lt;/span&gt;" style="text;whiteSpace=wrap;html=1;" parent="5A9Rjdn__eKlZkGyGeqz-18" vertex="1">
          <mxGeometry x="28.75" y="84" width="90" height="30" as="geometry" />
        </mxCell>
      </root>
    </mxGraphModel>
  </diagram>
</mxfile>
